<svg xmlns="http://www.w3.org/2000/svg" id="export" class="canvas" preserveAspectRatio="xMidYMid meet" style="" width="131" height="512"><rect id="background" fill="#fff" pointer-events="all" width="131" height="512"/><g id="origin" transform="translate(5.931640625, 5.931640625000568) scale(1)"><g id="clusters" class="clusters"/><g id="edge-paths" class="edge-paths"><defs><marker id="arrowhead" viewBox="0 0 10 10" refX="9" refY="5" markerUnits="strokeWidth" markerWidth="8" markerHeight="6" orient="auto" style="fill: rgb(0, 0, 0);"><path d="M 0 0 L 10 5 L 0 10 L 4 5 z" style="stroke-width: 1;"/></marker><marker id="arrowhead-select" viewBox="0 0 10 10" refX="9" refY="5" markerUnits="strokeWidth" markerWidth="8" markerHeight="6" orient="auto" style="fill: rgb(238, 0, 0);"><path d="M 0 0 L 10 5 L 0 10 L 4 5 z" style="stroke-width: 1;"/></marker><marker id="arrowhead-hover" viewBox="0 0 10 10" refX="9" refY="5" markerUnits="strokeWidth" markerWidth="8" markerHeight="6" orient="auto"><path d="M 0 0 L 10 5 L 0 10 L 4 5 z" style="stroke-width: 1;"/></marker></defs><path id="edge-input" class="edge-path" d="M44.3671875,21L44.3671875,22.666666666666668C44.3671875,24.333333333333332,44.3671875,27.666666666666668,44.3671875,32.833333333333336C44.3671875,38,44.3671875,45,44.3671875,52C44.3671875,59,44.3671875,66,44.3671875,71.16666666666667C44.3671875,76.33333333333333,44.3671875,79.66666666666667,44.3671875,81.33333333333333L44.3671875,83" style="stroke: rgb(0, 0, 0); stroke-width: 1px; fill: none; marker-end: url(&quot;#arrowhead&quot;);"/><path class="edge-path-hit-test" d="M44.3671875,21L44.3671875,22.666666666666668C44.3671875,24.333333333333332,44.3671875,27.666666666666668,44.3671875,32.833333333333336C44.3671875,38,44.3671875,45,44.3671875,52C44.3671875,59,44.3671875,66,44.3671875,71.16666666666667C44.3671875,76.33333333333333,44.3671875,79.66666666666667,44.3671875,81.33333333333333L44.3671875,83" style="pointer-events: stroke; stroke-width: 0.5em; fill: none; stroke: rgb(0, 0, 0); stroke-opacity: 0.001;"/><path id="edge-/upsampler/Resize_output_0" class="edge-path" d="M44.3671875,136L44.3671875,137.66666666666666C44.3671875,139.33333333333334,44.3671875,142.66666666666666,44.3671875,146C44.3671875,149.33333333333334,44.3671875,152.66666666666666,44.3671875,154.33333333333334L44.3671875,156" style="stroke: rgb(0, 0, 0); stroke-width: 1px; fill: none; marker-end: url(&quot;#arrowhead&quot;);"/><path class="edge-path-hit-test" d="M44.3671875,136L44.3671875,137.66666666666666C44.3671875,139.33333333333334,44.3671875,142.66666666666666,44.3671875,146C44.3671875,149.33333333333334,44.3671875,152.66666666666666,44.3671875,154.33333333333334L44.3671875,156" style="pointer-events: stroke; stroke-width: 0.5em; fill: none; stroke: rgb(0, 0, 0); stroke-opacity: 0.001;"/><path id="edge-/conv1/Conv_output_0" class="edge-path" d="M44.3671875,209L44.3671875,210.66666666666666C44.3671875,212.33333333333334,44.3671875,215.66666666666666,44.3671875,219C44.3671875,222.33333333333334,44.3671875,225.66666666666666,44.3671875,227.33333333333334L44.3671875,229" style="stroke: rgb(0, 0, 0); stroke-width: 1px; fill: none; marker-end: url(&quot;#arrowhead&quot;);"/><path class="edge-path-hit-test" d="M44.3671875,209L44.3671875,210.66666666666666C44.3671875,212.33333333333334,44.3671875,215.66666666666666,44.3671875,219C44.3671875,222.33333333333334,44.3671875,225.66666666666666,44.3671875,227.33333333333334L44.3671875,229" style="pointer-events: stroke; stroke-width: 0.5em; fill: none; stroke: rgb(0, 0, 0); stroke-opacity: 0.001;"/><path id="edge-/relu/Relu_output_0" class="edge-path" d="M44.3671875,250L44.3671875,251.66666666666666C44.3671875,253.33333333333334,44.3671875,256.6666666666667,44.3671875,260C44.3671875,263.3333333333333,44.3671875,266.6666666666667,44.3671875,268.3333333333333L44.3671875,270" style="stroke: rgb(0, 0, 0); stroke-width: 1px; fill: none; marker-end: url(&quot;#arrowhead&quot;);"/><path class="edge-path-hit-test" d="M44.3671875,250L44.3671875,251.66666666666666C44.3671875,253.33333333333334,44.3671875,256.6666666666667,44.3671875,260C44.3671875,263.3333333333333,44.3671875,266.6666666666667,44.3671875,268.3333333333333L44.3671875,270" style="pointer-events: stroke; stroke-width: 0.5em; fill: none; stroke: rgb(0, 0, 0); stroke-opacity: 0.001;"/><path id="edge-/conv2/Conv_output_0" class="edge-path" d="M44.3671875,323L44.3671875,324.6666666666667C44.3671875,326.3333333333333,44.3671875,329.6666666666667,44.3671875,333C44.3671875,336.3333333333333,44.3671875,339.6666666666667,44.3671875,341.3333333333333L44.3671875,343" style="stroke: rgb(0, 0, 0); stroke-width: 1px; fill: none; marker-end: url(&quot;#arrowhead&quot;);"/><path class="edge-path-hit-test" d="M44.3671875,323L44.3671875,324.6666666666667C44.3671875,326.3333333333333,44.3671875,329.6666666666667,44.3671875,333C44.3671875,336.3333333333333,44.3671875,339.6666666666667,44.3671875,341.3333333333333L44.3671875,343" style="pointer-events: stroke; stroke-width: 0.5em; fill: none; stroke: rgb(0, 0, 0); stroke-opacity: 0.001;"/><path id="edge-/relu_1/Relu_output_0" class="edge-path" d="M44.3671875,364L44.3671875,365.6666666666667C44.3671875,367.3333333333333,44.3671875,370.6666666666667,44.3671875,374C44.3671875,377.3333333333333,44.3671875,380.6666666666667,44.3671875,382.3333333333333L44.3671875,384" style="stroke: rgb(0, 0, 0); stroke-width: 1px; fill: none; marker-end: url(&quot;#arrowhead&quot;);"/><path class="edge-path-hit-test" d="M44.3671875,364L44.3671875,365.6666666666667C44.3671875,367.3333333333333,44.3671875,370.6666666666667,44.3671875,374C44.3671875,377.3333333333333,44.3671875,380.6666666666667,44.3671875,382.3333333333333L44.3671875,384" style="pointer-events: stroke; stroke-width: 0.5em; fill: none; stroke: rgb(0, 0, 0); stroke-opacity: 0.001;"/><path id="edge-output" class="edge-path" d="M44.3671875,437L44.3671875,440.5C44.3671875,444,44.3671875,451,44.3671875,458C44.3671875,465,44.3671875,472,44.3671875,475.5L44.3671875,479" style="stroke: rgb(0, 0, 0); stroke-width: 1px; fill: none; marker-end: url(&quot;#arrowhead&quot;);"/><path class="edge-path-hit-test" d="M44.3671875,437L44.3671875,440.5C44.3671875,444,44.3671875,451,44.3671875,458C44.3671875,465,44.3671875,472,44.3671875,475.5L44.3671875,479" style="pointer-events: stroke; stroke-width: 0.5em; fill: none; stroke: rgb(0, 0, 0); stroke-opacity: 0.001;"/></g><g id="edge-labels" class="edge-labels"><text class="edge-label" id="edge-label-edge-input" transform="translate(49.3671875,46)" style="opacity: 1; font-family: -apple-system, BlinkMacSystemFont, &quot;Segoe WPC&quot;, &quot;Segoe UI&quot;, Ubuntu, &quot;Droid Sans&quot;, sans-serif, &quot;PingFang SC&quot;; font-size: 10px;"><tspan xml:space="preserve" dy="1em" x="1">1×3×256×256</tspan></text><text class="edge-label" id="edge-label-edge-output" transform="translate(49.3671875,452)" style="opacity: 1; font-family: -apple-system, BlinkMacSystemFont, &quot;Segoe WPC&quot;, &quot;Segoe UI&quot;, Ubuntu, &quot;Droid Sans&quot;, sans-serif, &quot;PingFang SC&quot;; font-size: 10px;"><tspan xml:space="preserve" dy="1em" x="1">1×3×768×768</tspan></text></g><g id="nodes" class="nodes"><g id="input-name-input" class="node graph-input" transform="translate(24.0703125,0)" style="opacity: 1;"><g class="node-item graph-item-input" transform="translate(0,0)"><path d="M5,0h30.59375a5,5 0 0 1 5,5v11a5,5 0 0 1 -5,5h-30.59375a5,5 0 0 1 -5,-5v-11a5,5 0 0 1 5,-5z" style="stroke: rgb(0, 0, 0); fill: rgb(238, 238, 238); stroke-width: 0;"/><text x="6" y="15" style="font-family: -apple-system, BlinkMacSystemFont, &quot;Segoe WPC&quot;, &quot;Segoe UI&quot;, Ubuntu, &quot;Droid Sans&quot;, sans-serif, &quot;PingFang SC&quot;; font-size: 11px; text-rendering: geometricprecision;">input</text><title>float32[1,3,256,256]</title></g><path class="node border" d="M5,0h30.59375a5,5 0 0 1 5,5v11a5,5 0 0 1 -5,5h-30.59375a5,5 0 0 1 -5,-5v-11a5,5 0 0 1 5,-5z" style="stroke: rgb(51, 51, 51); fill: none; stroke-width: 1px;"/></g><g id="node-name-/upsampler/Resize" class="node graph-node" transform="translate(6.8671875,83)" style="opacity: 1;"><g class="node-item node-item-type" transform="translate(0,0)"><path d="M5,0h65a5,5 0 0 1 5,5v16a0,0 0 0 1 0,0h-75a0,0 0 0 1 0,0v-16a5,5 0 0 1 5,-5z" style="stroke: rgb(0, 0, 0); fill: rgb(0, 0, 0); stroke-width: 0;"/><text x="6" y="15" style="font-family: -apple-system, BlinkMacSystemFont, &quot;Segoe WPC&quot;, &quot;Segoe UI&quot;, Ubuntu, &quot;Droid Sans&quot;, sans-serif, &quot;PingFang SC&quot;; font-size: 11px; text-rendering: geometricprecision; fill: rgb(255, 255, 255);">Resize</text><title>/upsampler/Resize</title></g><g class="node-attribute" transform="translate(0,21)"><path d="M0,0h75a0,0 0 0 1 0,0v27a5,5 0 0 1 -5,5h-65a5,5 0 0 1 -5,-5v-27a0,0 0 0 1 0,0z" style="stroke: rgb(0, 0, 0); fill: rgb(255, 255, 255); stroke-width: 0;"/><text id="initializer-/upsampler/Constant_1_output_0" xml:space="preserve" x="6" y="13" style="font-family: -apple-system, BlinkMacSystemFont, &quot;Segoe WPC&quot;, &quot;Segoe UI&quot;, Ubuntu, &quot;Droid Sans&quot;, sans-serif, &quot;PingFang SC&quot;; font-size: 9px; font-weight: normal; text-rendering: geometricprecision;"><title>float32[0]</title><tspan style="font-weight: bold;">roi</tspan><tspan>〈0〉</tspan></text><text id="initializer-/upsampler/Constant_output_0" xml:space="preserve" x="6" y="26" style="font-family: -apple-system, BlinkMacSystemFont, &quot;Segoe WPC&quot;, &quot;Segoe UI&quot;, Ubuntu, &quot;Droid Sans&quot;, sans-serif, &quot;PingFang SC&quot;; font-size: 9px; font-weight: normal; text-rendering: geometricprecision;"><title>float32[4]</title><tspan style="font-weight: bold;">scales</tspan><tspan>〈4〉</tspan></text><line class="node" x1="0" x2="75" y1="0" y2="0" style="stroke: rgb(51, 51, 51); fill: none; stroke-width: 1px;"/></g><path class="node border" d="M5,0h65a5,5 0 0 1 5,5v43a5,5 0 0 1 -5,5h-65a5,5 0 0 1 -5,-5v-43a5,5 0 0 1 5,-5z" style="stroke: rgb(51, 51, 51); fill: none; stroke-width: 1px;"/></g><g id="node-name-/conv1/Conv" class="node graph-node" transform="translate(1.25,156)" style="opacity: 1;"><g class="node-item node-item-type node-item-type-layer" transform="translate(0,0)"><path d="M5,0h76.234375a5,5 0 0 1 5,5v16a0,0 0 0 1 0,0h-86.234375a0,0 0 0 1 0,0v-16a5,5 0 0 1 5,-5z" style="stroke: rgb(0, 0, 0); fill: rgb(51, 85, 136); stroke-width: 0;"/><text x="6" y="15" style="font-family: -apple-system, BlinkMacSystemFont, &quot;Segoe WPC&quot;, &quot;Segoe UI&quot;, Ubuntu, &quot;Droid Sans&quot;, sans-serif, &quot;PingFang SC&quot;; font-size: 11px; text-rendering: geometricprecision; fill: rgb(255, 255, 255);">Conv</text><title>/conv1/Conv</title></g><g class="node-attribute" transform="translate(0,21)"><path d="M0,0h86.234375a0,0 0 0 1 0,0v27a5,5 0 0 1 -5,5h-76.234375a5,5 0 0 1 -5,-5v-27a0,0 0 0 1 0,0z" style="stroke: rgb(0, 0, 0); fill: rgb(255, 255, 255); stroke-width: 0;"/><text id="initializer-conv1.weight" xml:space="preserve" x="6" y="13" style="font-family: -apple-system, BlinkMacSystemFont, &quot;Segoe WPC&quot;, &quot;Segoe UI&quot;, Ubuntu, &quot;Droid Sans&quot;, sans-serif, &quot;PingFang SC&quot;; font-size: 9px; font-weight: normal; text-rendering: geometricprecision;"><title>float32[64,3,9,9]</title><tspan style="font-weight: bold;">W</tspan><tspan>〈64×3×9×9〉</tspan></text><text id="initializer-conv1.bias" xml:space="preserve" x="6" y="26" style="font-family: -apple-system, BlinkMacSystemFont, &quot;Segoe WPC&quot;, &quot;Segoe UI&quot;, Ubuntu, &quot;Droid Sans&quot;, sans-serif, &quot;PingFang SC&quot;; font-size: 9px; font-weight: normal; text-rendering: geometricprecision;"><title>float32[64]</title><tspan style="font-weight: bold;">B</tspan><tspan>〈64〉</tspan></text><line class="node" x1="0" x2="86.234375" y1="0" y2="0" style="stroke: rgb(51, 51, 51); fill: none; stroke-width: 1px;"/></g><path class="node border" d="M5,0h76.234375a5,5 0 0 1 5,5v43a5,5 0 0 1 -5,5h-76.234375a5,5 0 0 1 -5,-5v-43a5,5 0 0 1 5,-5z" style="stroke: rgb(51, 51, 51); fill: none; stroke-width: 1px;"/></g><g id="node-name-/relu/Relu" class="node graph-node" transform="translate(25.9765625,229)" style="opacity: 1;"><g class="node-item node-item-type node-item-type-activation" transform="translate(0,0)"><path d="M5,0h26.78125a5,5 0 0 1 5,5v11a5,5 0 0 1 -5,5h-26.78125a5,5 0 0 1 -5,-5v-11a5,5 0 0 1 5,-5z" style="stroke: rgb(0, 0, 0); fill: rgb(112, 41, 33); stroke-width: 0;"/><text x="6" y="15" style="font-family: -apple-system, BlinkMacSystemFont, &quot;Segoe WPC&quot;, &quot;Segoe UI&quot;, Ubuntu, &quot;Droid Sans&quot;, sans-serif, &quot;PingFang SC&quot;; font-size: 11px; text-rendering: geometricprecision; fill: rgb(255, 255, 255);">Relu</text><title>/relu/Relu</title></g><path class="node border" d="M5,0h26.78125a5,5 0 0 1 5,5v11a5,5 0 0 1 -5,5h-26.78125a5,5 0 0 1 -5,-5v-11a5,5 0 0 1 5,-5z" style="stroke: rgb(51, 51, 51); fill: none; stroke-width: 1px;"/></g><g id="node-name-/conv2/Conv" class="node graph-node" transform="translate(0,270)" style="opacity: 1;"><g class="node-item node-item-type node-item-type-layer" transform="translate(0,0)"><path d="M5,0h78.734375a5,5 0 0 1 5,5v16a0,0 0 0 1 0,0h-88.734375a0,0 0 0 1 0,0v-16a5,5 0 0 1 5,-5z" style="stroke: rgb(0, 0, 0); fill: rgb(51, 85, 136); stroke-width: 0;"/><text x="6" y="15" style="font-family: -apple-system, BlinkMacSystemFont, &quot;Segoe WPC&quot;, &quot;Segoe UI&quot;, Ubuntu, &quot;Droid Sans&quot;, sans-serif, &quot;PingFang SC&quot;; font-size: 11px; text-rendering: geometricprecision; fill: rgb(255, 255, 255);">Conv</text><title>/conv2/Conv</title></g><g class="node-attribute" transform="translate(0,21)"><path d="M0,0h88.734375a0,0 0 0 1 0,0v27a5,5 0 0 1 -5,5h-78.734375a5,5 0 0 1 -5,-5v-27a0,0 0 0 1 0,0z" style="stroke: rgb(0, 0, 0); fill: rgb(255, 255, 255); stroke-width: 0;"/><text id="initializer-conv2.weight" xml:space="preserve" x="6" y="13" style="font-family: -apple-system, BlinkMacSystemFont, &quot;Segoe WPC&quot;, &quot;Segoe UI&quot;, Ubuntu, &quot;Droid Sans&quot;, sans-serif, &quot;PingFang SC&quot;; font-size: 9px; font-weight: normal; text-rendering: geometricprecision;"><title>float32[32,64,1,1]</title><tspan style="font-weight: bold;">W</tspan><tspan>〈32×64×1×1〉</tspan></text><text id="initializer-conv2.bias" xml:space="preserve" x="6" y="26" style="font-family: -apple-system, BlinkMacSystemFont, &quot;Segoe WPC&quot;, &quot;Segoe UI&quot;, Ubuntu, &quot;Droid Sans&quot;, sans-serif, &quot;PingFang SC&quot;; font-size: 9px; font-weight: normal; text-rendering: geometricprecision;"><title>float32[32]</title><tspan style="font-weight: bold;">B</tspan><tspan>〈32〉</tspan></text><line class="node" x1="0" x2="88.734375" y1="0" y2="0" style="stroke: rgb(51, 51, 51); fill: none; stroke-width: 1px;"/></g><path class="node border" d="M5,0h78.734375a5,5 0 0 1 5,5v43a5,5 0 0 1 -5,5h-78.734375a5,5 0 0 1 -5,-5v-43a5,5 0 0 1 5,-5z" style="stroke: rgb(51, 51, 51); fill: none; stroke-width: 1px;"/></g><g id="node-name-/relu_1/Relu" class="node graph-node" transform="translate(25.9765625,343)" style="opacity: 1;"><g class="node-item node-item-type node-item-type-activation" transform="translate(0,0)"><path d="M5,0h26.78125a5,5 0 0 1 5,5v11a5,5 0 0 1 -5,5h-26.78125a5,5 0 0 1 -5,-5v-11a5,5 0 0 1 5,-5z" style="stroke: rgb(0, 0, 0); fill: rgb(112, 41, 33); stroke-width: 0;"/><text x="6" y="15" style="font-family: -apple-system, BlinkMacSystemFont, &quot;Segoe WPC&quot;, &quot;Segoe UI&quot;, Ubuntu, &quot;Droid Sans&quot;, sans-serif, &quot;PingFang SC&quot;; font-size: 11px; text-rendering: geometricprecision; fill: rgb(255, 255, 255);">Relu</text><title>/relu_1/Relu</title></g><path class="node border" d="M5,0h26.78125a5,5 0 0 1 5,5v11a5,5 0 0 1 -5,5h-26.78125a5,5 0 0 1 -5,-5v-11a5,5 0 0 1 5,-5z" style="stroke: rgb(51, 51, 51); fill: none; stroke-width: 1px;"/></g><g id="node-name-/conv3/Conv" class="node graph-node" transform="translate(1.640625,384)" style="opacity: 1;"><g class="node-item node-item-type node-item-type-layer" transform="translate(0,0)"><path d="M5,0h75.453125a5,5 0 0 1 5,5v16a0,0 0 0 1 0,0h-85.453125a0,0 0 0 1 0,0v-16a5,5 0 0 1 5,-5z" style="stroke: rgb(0, 0, 0); fill: rgb(51, 85, 136); stroke-width: 0;"/><text x="6" y="15" style="font-family: -apple-system, BlinkMacSystemFont, &quot;Segoe WPC&quot;, &quot;Segoe UI&quot;, Ubuntu, &quot;Droid Sans&quot;, sans-serif, &quot;PingFang SC&quot;; font-size: 11px; text-rendering: geometricprecision; fill: rgb(255, 255, 255);">Conv</text><title>/conv3/Conv</title></g><g class="node-attribute" transform="translate(0,21)"><path d="M0,0h85.453125a0,0 0 0 1 0,0v27a5,5 0 0 1 -5,5h-75.453125a5,5 0 0 1 -5,-5v-27a0,0 0 0 1 0,0z" style="stroke: rgb(0, 0, 0); fill: rgb(255, 255, 255); stroke-width: 0;"/><text id="initializer-conv3.weight" xml:space="preserve" x="6" y="13" style="font-family: -apple-system, BlinkMacSystemFont, &quot;Segoe WPC&quot;, &quot;Segoe UI&quot;, Ubuntu, &quot;Droid Sans&quot;, sans-serif, &quot;PingFang SC&quot;; font-size: 9px; font-weight: normal; text-rendering: geometricprecision;"><title>float32[3,32,5,5]</title><tspan style="font-weight: bold;">W</tspan><tspan>〈3×32×5×5〉</tspan></text><text id="initializer-conv3.bias" xml:space="preserve" x="6" y="26" style="font-family: -apple-system, BlinkMacSystemFont, &quot;Segoe WPC&quot;, &quot;Segoe UI&quot;, Ubuntu, &quot;Droid Sans&quot;, sans-serif, &quot;PingFang SC&quot;; font-size: 9px; font-weight: normal; text-rendering: geometricprecision;"><title>float32[3]</title><tspan style="font-weight: bold;">B</tspan><tspan>〈3〉</tspan></text><line class="node" x1="0" x2="85.453125" y1="0" y2="0" style="stroke: rgb(51, 51, 51); fill: none; stroke-width: 1px;"/></g><path class="node border" d="M5,0h75.453125a5,5 0 0 1 5,5v43a5,5 0 0 1 -5,5h-75.453125a5,5 0 0 1 -5,-5v-43a5,5 0 0 1 5,-5z" style="stroke: rgb(51, 51, 51); fill: none; stroke-width: 1px;"/></g><g class="node" transform="translate(20.1484375,479)" style="opacity: 1;"><g class="node-item graph-item-output" transform="translate(0,0)"><path d="M5,0h38.4375a5,5 0 0 1 5,5v11a5,5 0 0 1 -5,5h-38.4375a5,5 0 0 1 -5,-5v-11a5,5 0 0 1 5,-5z" style="stroke: rgb(0, 0, 0); fill: rgb(238, 238, 238); stroke-width: 0;"/><text x="6" y="15" style="font-family: -apple-system, BlinkMacSystemFont, &quot;Segoe WPC&quot;, &quot;Segoe UI&quot;, Ubuntu, &quot;Droid Sans&quot;, sans-serif, &quot;PingFang SC&quot;; font-size: 11px; text-rendering: geometricprecision;">output</text><title>float32[1,3,768,768]</title></g><path class="node border" d="M5,0h38.4375a5,5 0 0 1 5,5v11a5,5 0 0 1 -5,5h-38.4375a5,5 0 0 1 -5,-5v-11a5,5 0 0 1 5,-5z" style="stroke: rgb(51, 51, 51); fill: none; stroke-width: 1px;"/></g></g></g></svg>